# xmcd CD database file
#
# Track frame offsets:
#	150
#	17870
#	36650
#	52800
#	67607
#	87037
#	104357
#	121272
#	139907
#	158680
#
# Disc length: 2285 seconds
#
# Revision: 3
# Processed by: cddbd v1.5.2PL0 Copyright (c) Steve Scherf et al.
# Submitted via: CDex 1.70beta2
#
DISCID=7908eb0a
DTITLE=STRYPER - In God We Trust　永遠の誓い
DYEAR=1988
DGENRE=Metal
TTITLE0=In God We Trust　永遠の誓い
TTITLE1=Always There For You　愛のすべてを
TTITLE2=Keep The Fire Burning
TTITLE3=I Believe In You
TTITLE4=The Writings On The Wall　不吉な予感
TTITLE5=It's Up 2 U
TTITLE6=The World Of You And I
TTITLE7=Come To The Everlife
TTITLE8=Lonely
TTITLE9=The Reign　魂の覇者
EXTD=YEAR: 1988
EXTT0=
EXTT1=
EXTT2=
EXTT3=
EXTT4=
EXTT5=
EXTT6=
EXTT7=
EXTT8=
EXTT9=
PLAYORDER=
